<?xml version="1.0" encoding="UTF-8"?>
<svg id="Layer_1" data-name="Layer 1" xmlns="http://www.w3.org/2000/svg" viewBox="0 0 515.3 69.29">
  <defs>
    <style>
      .cls-1 {
        fill: #fff;
        stroke-width: 0px;
      }
    </style>
  </defs>
  <path class="cls-1" d="M203.77,66.09c-8.68,0-17.35,0-26.03,0-5.31,0-8.8-3.18-8.83-8.44-.08-15.71-.09-31.41,0-47.12.03-5.31,3.49-8.47,8.79-8.47,17.4,0,34.81,0,52.21,0,5.29,0,8.67,3.41,8.67,8.75,0,15.5,0,30.99,0,46.49,0,5.44-3.35,8.79-8.79,8.79-8.68,0-17.35,0-26.03,0ZM203.65,56.46c7.93,0,15.87-.03,23.8.03,1.21,0,1.59-.25,1.59-1.54-.05-13.96-.05-27.92,0-41.88,0-1.24-.36-1.45-1.5-1.45-15.87.04-31.74.04-47.6,0-1.1,0-1.39.24-1.39,1.37.04,14.01.04,28.03,0,42.04,0,1.19.29,1.47,1.47,1.46,7.88-.06,15.76-.03,23.64-.03Z"/>
  <path class="cls-1" d="M79.02,52.22c0-.58,0-1.15,0-1.73,0-14.7.03-29.41-.04-44.11,0-1.72.51-2.11,2.1-2.02,2.16.13,4.34.08,6.5.01.91-.03,1.15.26,1.15,1.15-.02,18.35,0,36.71-.03,55.06,0,2.85-1.36,4.98-4.03,6.08-2.73,1.12-5.21.54-7.24-1.59-8.49-8.92-16.96-17.86-25.43-26.8-6.66-7.02-13.31-14.04-19.97-21.05-.1-.1-.23-.18-.43-.34-.34.64-.2,1.27-.2,1.87,0,14.7-.02,29.41.02,44.11,0,1.29-.29,1.74-1.64,1.67-2.22-.11-4.44-.09-6.66,0-1.14.04-1.39-.35-1.39-1.43.04-11.74.02-23.49.02-35.23,0-6.19,0-12.38,0-18.57,0-3.3,1.43-5.61,4.11-6.67,2.74-1.08,5.29-.37,7.56,2.02,13.05,13.78,26.11,27.54,39.17,41.31,2.02,2.13,4.04,4.27,6.06,6.4.12-.05.23-.1.35-.15Z"/>
  <path class="cls-1" d="M281.46,65.67c-9.36,0-18.73,0-28.09,0-5.11,0-8.69-3.56-8.7-8.65,0-14.76,0-29.51,0-44.27,0-5.08,3.61-8.72,8.66-8.72,19.05,0,38.09,0,57.14-.03,1.12,0,1.57.16,1.5,1.43-.12,2.21-.11,4.44,0,6.66.06,1.25-.31,1.55-1.55,1.54-16.82-.04-33.65-.03-50.47-.03-1.43,0-2.86.08-4.28-.02-1.17-.08-1.39.38-1.38,1.44.03,13.28.04,26.55,0,39.83,0,1.1.38,1.26,1.35,1.26,8.89-.03,17.78-.02,26.66-.02s18.52.03,27.77-.03c1.29,0,1.59.37,1.53,1.58-.1,2.22-.09,4.44,0,6.66.05,1.13-.31,1.4-1.41,1.39-9.58-.04-19.15-.02-28.73-.02Z"/>
  <path class="cls-1" d="M131.83,65.67c-9.31,0-18.63,0-27.94,0-5.11,0-8.67-3.54-8.67-8.66,0-14.71,0-29.41,0-44.12,0-5.31,3.54-8.86,8.83-8.86,18.94,0,37.89,0,56.83-.02,1.16,0,1.67.17,1.59,1.5-.13,2.21-.11,4.45,0,6.66.06,1.2-.3,1.47-1.48,1.47-18.1-.04-36.19,0-54.29-.07-1.54,0-1.89.37-1.89,1.9.07,13.01.06,26.03,0,39.04,0,1.33.32,1.63,1.63,1.62,17.99-.05,35.98-.01,53.97-.07,1.46,0,1.74.42,1.67,1.74-.11,2.11-.1,4.23,0,6.35.06,1.22-.26,1.57-1.53,1.56-9.58-.06-19.15-.03-28.73-.03Z"/>
  <path class="cls-1" d="M419.83,5.56c-2.75,4.49-25.32,41.24-34.03,55.41-3.68,5.98-11.03,6.14-14.8.26-11.67-18.17-23.3-36.36-34.95-54.54-.19-.3-.38-.6-.71-1.13,3.58,0,6.94.01,10.29,0,.76,0,.94.6,1.24,1.06,7.11,10.87,31.23,47.79,31.46,48.11,1.67-2.62,21.97-34.46,30.52-47.92.56-.88,1.13-1.32,2.24-1.28,2.8.1,5.6.03,8.74.03Z"/>
  <path class="cls-1" d="M451.88,64.51c-4.57,0-7.26-2.71-7.26-7.31,0-16.98.02-33.97-.04-50.95,0-1.47.43-1.74,1.76-1.67,2.11.11,4.24.11,6.35,0,1.24-.06,1.55.3,1.55,1.54-.05,15.61,0,31.22-.07,46.82,0,1.55.3,1.98,1.93,1.98,17.78-.07,35.56-.03,53.34-.08,1.32,0,1.71.31,1.64,1.64-.12,2.22-.1,4.45,0,6.66.05,1.13-.31,1.39-1.4,1.39-9.74-.04-48.26-.02-57.79-.03Z"/>
  <path class="cls-1" d="M320.99,34.81c0-9.46.03-18.92-.03-28.38,0-1.33.37-1.7,1.67-1.64,2.22.11,4.44.07,6.66.01.97-.02,1.37.16,1.37,1.29-.04,19.19-.04,38.37,0,57.56,0,1.06-.31,1.34-1.34,1.31-2.32-.07-4.65-.09-6.98,0-1.18.05-1.37-.4-1.37-1.45.04-9.57.02-19.13.02-28.7Z"/>
  <path class="cls-1" d="M13.82,34.98c0,9.46-.02,18.92.02,28.38,0,1.18-.2,1.67-1.53,1.6-2.27-.12-4.55-.07-6.82-.02-.9.02-1.29-.11-1.29-1.17.04-19.29.03-38.59,0-57.88,0-.96.35-1.11,1.19-1.09,2.33.05,4.66.09,6.98-.01,1.21-.06,1.47.32,1.47,1.49-.05,9.57-.03,19.13-.03,28.7Z"/>
  <path class="cls-1" d="M436.78,63.2c.01,1.51-.45,1.83-1.84,1.76-2.21-.11-4.44-.07-6.66,0-.92.03-1.14-.29-1.14-1.17.02-19.29.02-38.59,0-57.88,0-.96.36-1.12,1.2-1.1,2.38.05,4.76.07,7.14,0,1.07-.04,1.29.31,1.29,1.32-.04,9.57-.06,47.62.02,57.09Z"/>
</svg>