<?xml version="1.0" encoding="UTF-8"?>
<svg id="Layer_1" data-name="Layer 1" xmlns="http://www.w3.org/2000/svg" viewBox="0 0 523.66 39.07">
  <defs>
    <style>
      .cls-1 {
        fill: #fff;
        stroke-width: 0px;
      }
    </style>
  </defs>
  <path class="cls-1" d="M9.37,30.91h-2.59V8.17h2.59v22.74Z"/>
  <path class="cls-1" d="M29.1,30.91h-2.51L15.89,11.08l.03,1.5c.03.57.05,1.04.05,1.43v16.89h-2.09V8.17h3.24l10,18.53-.03-1.58c-.02-.62-.03-1.17-.03-1.65v-15.3h2.04v22.74Z"/>
  <path class="cls-1" d="M31.34,24.89l2.33-.58c.94,3.1,2.97,4.65,6.1,4.65,1.64,0,2.87-.38,3.7-1.14.83-.76,1.24-1.79,1.24-3.07,0-.97-.32-1.75-.95-2.34s-1.36-1-2.19-1.22l-4.14-1.12c-1.07-.3-1.95-.66-2.63-1.09-.68-.43-1.26-1.09-1.73-1.98-.48-.89-.71-1.91-.71-3.05,0-1.9.65-3.42,1.95-4.55,1.3-1.13,2.97-1.69,5.01-1.69,3.76,0,6.22,1.87,7.41,5.61l-2.35.77c-.27-1.33-.91-2.34-1.92-3.02-1.01-.68-2.08-1.02-3.23-1.02s-2.14.33-3.02.99-1.32,1.59-1.32,2.8c0,1.69,1.12,2.82,3.36,3.41l3.87,1c3.53.93,5.3,3.03,5.3,6.28,0,1.97-.66,3.6-1.99,4.91s-3.2,1.96-5.61,1.96c-4.28,0-7.11-2.16-8.48-6.48Z"/>
  <path class="cls-1" d="M62.41,8.17h2.15v14.85c0,2.98-.66,5.12-1.99,6.41s-3.07,1.94-5.22,1.94c-2.39,0-4.16-.67-5.32-2s-1.73-3.45-1.73-6.35v-14.85h2.59v14.86c0,1.77.19,3.01.56,3.73.37.72.94,1.26,1.7,1.6.76.34,1.55.52,2.38.52,1.6,0,2.81-.46,3.63-1.38.83-.92,1.24-2.41,1.24-4.47v-14.86Z"/>
  <path class="cls-1" d="M88.73,30.91h-2.51V11.05l-6.71,19.86h-1.76l-6.78-19.86v19.86h-2.2V8.17h3.83l6.25,18.19,6.1-18.19h3.79v22.74Z"/>
  <path class="cls-1" d="M100.37,31.37c-2.66,0-4.73-1.14-6.21-3.41s-2.23-5.06-2.23-8.36.78-6.29,2.33-8.54c1.56-2.24,3.61-3.37,6.18-3.37s4.6,1.1,6.15,3.31c1.54,2.21,2.32,4.99,2.32,8.34s-.75,6.03-2.25,8.43c-1.5,2.4-3.6,3.59-6.29,3.59ZM100.43,29.06c1.81,0,3.22-.91,4.24-2.72,1.02-1.81,1.53-4.15,1.53-7s-.53-5.22-1.58-6.85c-1.06-1.63-2.46-2.45-4.2-2.45s-3.17.88-4.21,2.65c-1.04,1.77-1.56,4.08-1.56,6.94s.52,5.06,1.58,6.81c1.05,1.75,2.45,2.63,4.21,2.63Z"/>
  <path class="cls-1" d="M109.89,24.89l2.33-.58c.94,3.1,2.97,4.65,6.1,4.65,1.64,0,2.87-.38,3.7-1.14.83-.76,1.24-1.79,1.24-3.07,0-.97-.32-1.75-.95-2.34s-1.36-1-2.19-1.22l-4.14-1.12c-1.07-.3-1.95-.66-2.63-1.09-.68-.43-1.26-1.09-1.73-1.98-.48-.89-.71-1.91-.71-3.05,0-1.9.65-3.42,1.95-4.55,1.3-1.13,2.97-1.69,5.01-1.69,3.76,0,6.22,1.87,7.41,5.61l-2.35.77c-.27-1.33-.91-2.34-1.92-3.02-1.01-.68-2.08-1.02-3.23-1.02s-2.14.33-3.02.99-1.32,1.59-1.32,2.8c0,1.69,1.12,2.82,3.36,3.41l3.87,1c3.53.93,5.3,3.03,5.3,6.28,0,1.97-.66,3.6-1.99,4.91s-3.2,1.96-5.61,1.96c-4.28,0-7.11-2.16-8.48-6.48Z"/>
  <path class="cls-1" d="M138.86,30.91h-2.59V8.17h7.33c2.29,0,3.98.69,5.07,2.06,1.09,1.37,1.64,2.94,1.64,4.69,0,1.96-.59,3.57-1.78,4.85-1.19,1.28-2.74,1.92-4.66,1.92h-5.01v9.23ZM138.86,19.31h4.76c1.22,0,2.21-.4,2.95-1.21.75-.81,1.12-1.87,1.12-3.19,0-1.13-.33-2.14-1-3.03s-1.63-1.33-2.89-1.33h-4.94v8.76Z"/>
  <path class="cls-1" d="M165.64,30.91h-2.64l-2.08-6.65h-7.67l-1.85,6.65h-2.17l6.72-22.74h2.93l6.76,22.74ZM160.36,22.13l-3.2-10.93-3.2,10.93h6.4Z"/>
  <path class="cls-1" d="M182.55,30.91h-2.71l-3.81-9.85h-5.92v9.85h-2.42V8.17h8.15c2.21,0,3.85.66,4.91,1.99,1.07,1.33,1.6,2.78,1.6,4.36,0,1.21-.3,2.37-.89,3.48-.6,1.11-1.58,1.91-2.95,2.38l4.06,10.53ZM170.1,18.74h5.41c1.42,0,2.49-.41,3.19-1.24.7-.83,1.05-1.84,1.05-3.04s-.37-2.13-1.11-2.8c-.74-.67-1.68-1-2.81-1h-5.73v8.08Z"/>
  <path class="cls-1" d="M199.96,30.91h-2.64l-2.08-6.65h-7.67l-1.85,6.65h-2.17l6.72-22.74h2.93l6.76,22.74ZM194.68,22.13l-3.2-10.93-3.2,10.93h6.4Z"/>
  <path class="cls-1" d="M221.31,28.41v2.5h-12.21V8.17h2.65v20.24h9.56Z"/>
  <path class="cls-1" d="M237.56,30.91h-2.64l-2.08-6.65h-7.67l-1.85,6.65h-2.17l6.72-22.74h2.93l6.76,22.74ZM232.29,22.13l-3.2-10.93-3.2,10.93h6.4Z"/>
  <path class="cls-1" d="M259.1,23.26l2.36.58c-1.13,5.02-3.69,7.53-7.66,7.53-2.61,0-4.67-1.16-6.16-3.48-1.49-2.32-2.23-5.18-2.23-8.57s.78-6.31,2.33-8.44c1.56-2.12,3.64-3.18,6.26-3.18,3.88,0,6.37,2.44,7.47,7.31l-2.44.53c-.89-3.62-2.57-5.43-5.04-5.43-1.83,0-3.24.84-4.25,2.52-1,1.68-1.51,4.05-1.51,7.09,0,2.79.52,5.02,1.55,6.71,1.03,1.68,2.39,2.52,4.09,2.52,2.64,0,4.38-1.9,5.24-5.7Z"/>
  <path class="cls-1" d="M271.15,31.37c-2.66,0-4.73-1.14-6.21-3.41s-2.23-5.06-2.23-8.36.78-6.29,2.33-8.54c1.56-2.24,3.61-3.37,6.18-3.37s4.6,1.1,6.15,3.31c1.54,2.21,2.32,4.99,2.32,8.34s-.75,6.03-2.25,8.43c-1.5,2.4-3.6,3.59-6.29,3.59ZM271.21,29.06c1.81,0,3.22-.91,4.24-2.72,1.02-1.81,1.53-4.15,1.53-7s-.53-5.22-1.58-6.85c-1.06-1.63-2.46-2.45-4.2-2.45s-3.17.88-4.21,2.65c-1.04,1.77-1.56,4.08-1.56,6.94s.52,5.06,1.58,6.81c1.05,1.75,2.45,2.63,4.21,2.63Z"/>
  <path class="cls-1" d="M298.15,30.91h-2.51l-10.69-19.82.03,1.5c.03.57.05,1.04.05,1.43v16.89h-2.09V8.17h3.24l10,18.53-.03-1.58c-.02-.62-.03-1.17-.03-1.65v-15.3h2.04v22.74Z"/>
  <path class="cls-1" d="M300.4,24.89l2.33-.58c.94,3.1,2.97,4.65,6.1,4.65,1.64,0,2.87-.38,3.7-1.14.83-.76,1.24-1.79,1.24-3.07,0-.97-.32-1.75-.95-2.34s-1.36-1-2.19-1.22l-4.14-1.12c-1.07-.3-1.95-.66-2.63-1.09-.68-.43-1.26-1.09-1.73-1.98-.48-.89-.71-1.91-.71-3.05,0-1.9.65-3.42,1.95-4.55,1.3-1.13,2.97-1.69,5.01-1.69,3.76,0,6.22,1.87,7.41,5.61l-2.35.77c-.27-1.33-.91-2.34-1.92-3.02-1.01-.68-2.08-1.02-3.23-1.02s-2.14.33-3.02.99-1.32,1.59-1.32,2.8c0,1.69,1.12,2.82,3.36,3.41l3.87,1c3.53.93,5.3,3.03,5.3,6.28,0,1.97-.66,3.6-1.99,4.91s-3.2,1.96-5.61,1.96c-4.28,0-7.11-2.16-8.48-6.48Z"/>
  <path class="cls-1" d="M325.3,30.91h-2.59V10.66h-5.92v-2.5h14.45v2.5h-5.94v20.24Z"/>
  <path class="cls-1" d="M348.33,30.91h-2.71l-3.81-9.85h-5.92v9.85h-2.42V8.17h8.15c2.21,0,3.85.66,4.91,1.99,1.07,1.33,1.6,2.78,1.6,4.36,0,1.21-.3,2.37-.89,3.48-.6,1.11-1.58,1.91-2.95,2.38l4.06,10.53ZM335.88,18.74h5.41c1.42,0,2.49-.41,3.19-1.24.7-.83,1.05-1.84,1.05-3.04s-.37-2.13-1.11-2.8c-.74-.67-1.68-1-2.81-1h-5.73v8.08Z"/>
  <path class="cls-1" d="M363.33,8.17h2.15v14.85c0,2.98-.66,5.12-1.99,6.41s-3.07,1.94-5.22,1.94c-2.39,0-4.16-.67-5.32-2s-1.73-3.45-1.73-6.35v-14.85h2.59v14.86c0,1.77.19,3.01.56,3.73.37.72.94,1.26,1.7,1.6.76.34,1.55.52,2.38.52,1.6,0,2.81-.46,3.63-1.38.83-.92,1.24-2.41,1.24-4.47v-14.86Z"/>
  <path class="cls-1" d="M382.08,23.26l2.36.58c-1.13,5.02-3.69,7.53-7.66,7.53-2.61,0-4.67-1.16-6.16-3.48-1.49-2.32-2.23-5.18-2.23-8.57s.78-6.31,2.33-8.44c1.56-2.12,3.64-3.18,6.26-3.18,3.88,0,6.37,2.44,7.47,7.31l-2.44.53c-.89-3.62-2.57-5.43-5.04-5.43-1.83,0-3.24.84-4.25,2.52-1,1.68-1.51,4.05-1.51,7.09,0,2.79.52,5.02,1.55,6.71,1.03,1.68,2.39,2.52,4.09,2.52,2.64,0,4.38-1.9,5.24-5.7Z"/>
  <path class="cls-1" d="M399.39,23.26l2.36.58c-1.13,5.02-3.69,7.53-7.66,7.53-2.61,0-4.67-1.16-6.16-3.48-1.49-2.32-2.23-5.18-2.23-8.57s.78-6.31,2.33-8.44c1.56-2.12,3.64-3.18,6.26-3.18,3.88,0,6.37,2.44,7.47,7.31l-2.44.53c-.89-3.62-2.57-5.43-5.04-5.43-1.83,0-3.24.84-4.25,2.52-1,1.68-1.51,4.05-1.51,7.09,0,2.79.52,5.02,1.55,6.71,1.03,1.68,2.39,2.52,4.09,2.52,2.64,0,4.38-1.9,5.24-5.7Z"/>
  <path class="cls-1" d="M406.9,30.91h-2.59V8.17h2.59v22.74Z"/>
  <path class="cls-1" d="M418.54,31.37c-2.66,0-4.73-1.14-6.21-3.41s-2.23-5.06-2.23-8.36.78-6.29,2.33-8.54c1.56-2.24,3.61-3.37,6.18-3.37s4.6,1.1,6.15,3.31c1.54,2.21,2.32,4.99,2.32,8.34s-.75,6.03-2.25,8.43c-1.5,2.4-3.6,3.59-6.29,3.59ZM418.6,29.06c1.81,0,3.22-.91,4.24-2.72,1.02-1.81,1.53-4.15,1.53-7s-.53-5.22-1.58-6.85c-1.06-1.63-2.46-2.45-4.2-2.45s-3.17.88-4.21,2.65c-1.04,1.77-1.56,4.08-1.56,6.94s.52,5.06,1.58,6.81c1.05,1.75,2.45,2.63,4.21,2.63Z"/>
  <path class="cls-1" d="M445.55,30.91h-2.51l-10.69-19.82.03,1.5c.03.57.05,1.04.05,1.43v16.89h-2.09V8.17h3.24l10,18.53-.03-1.58c-.02-.62-.03-1.17-.03-1.65v-15.3h2.04v22.74Z"/>
  <path class="cls-1" d="M469.55,23.26l2.36.58c-1.13,5.02-3.69,7.53-7.66,7.53-2.61,0-4.67-1.16-6.16-3.48-1.49-2.32-2.23-5.18-2.23-8.57s.78-6.31,2.33-8.44c1.56-2.12,3.64-3.18,6.26-3.18,3.88,0,6.37,2.44,7.47,7.31l-2.44.53c-.89-3.62-2.57-5.43-5.04-5.43-1.83,0-3.24.84-4.25,2.52-1,1.68-1.51,4.05-1.51,7.09,0,2.79.52,5.02,1.55,6.71,1.03,1.68,2.39,2.52,4.09,2.52,2.64,0,4.38-1.9,5.24-5.7Z"/>
  <path class="cls-1" d="M477.06,30.91h-2.59V8.17h2.59v22.74Z"/>
  <path class="cls-1" d="M495.53,8.17l-6.96,22.74h-2.5l-6.97-22.74h2.71l5.76,18.76,5.71-18.76h2.25Z"/>
  <path class="cls-1" d="M500.16,30.91h-2.59V8.17h2.59v22.74Z"/>
  <path class="cls-1" d="M516.88,28.41v2.5h-12.21V8.17h2.65v20.24h9.56Z"/>
</svg>