<?xml version="1.0" encoding="UTF-8"?>
<svg id="Layer_1" data-name="Layer 1" xmlns="http://www.w3.org/2000/svg" viewBox="0 0 466.56 292.22">
  <defs>
    <style>
      .cls-1 {
        fill: #9f1f00;
      }

      .cls-1, .cls-2 {
        stroke-width: 0px;
      }

      .cls-2 {
        fill: #fcc172;
      }
    </style>
  </defs>
  <path class="cls-2" d="M452.72,8.24c1.59.61,3.2,1.13,4.49,2.37,2.8,2.68,3.51,5.91,2.28,9.44-3.38,9.63-6.9,19.21-10.37,28.81-4.73,13.07-9.47,26.14-14.21,39.21-7.68,21.2-15.36,42.39-23.03,63.59-5.57,15.37-11.12,30.75-16.69,46.12-7.28,20.12-14.58,40.24-21.86,60.36-2.29,6.32-4.57,12.63-6.84,18.95-1.74,4.85-4.59,6.87-9.78,6.87-36.84,0-73.67,0-110.51,0-15.76,0-31.51,0-47.27,0-2.73,0-5.28-.54-7.3-2.58-1.69-1.71-2.63-3.73-2.55-6.17.03-.83,0-1.65-.23-2.46.64.08.6-.48.73-.82.5-1.23,1.23-2.28,2.16-3.22,9.61-9.78,19.2-19.57,28.81-29.36,11.47-11.68,22.93-23.36,34.41-35.03,9.58-9.74,19.18-19.45,28.75-29.19,3.57-3.64,7.08-7.35,10.62-11.02,3.66-3.64,7.34-7.25,10.97-10.92,4.91-4.97,9.78-9.98,14.67-14.97,6.54-6.66,13.1-13.3,19.64-19.96,5.52-5.61,11.03-11.24,16.55-16.86,11.69-11.9,23.39-23.8,35.09-35.71,5.48-5.58,10.96-11.17,16.44-16.75,11.66-11.87,23.35-23.7,34.94-35.63,2.13-2.19,4.17-4.34,7.26-5.1h2.82Z"/>
  <path class="cls-2" d="M171.63,213.77c-.74.6-.82,1.55-1.11,2.35-5.65,15.39-11.28,30.8-16.91,46.2-1.95,5.33-3.89,10.66-5.86,15.98-1.37,3.69-4.43,5.65-8.84,5.66-4.9.02-9.81,0-14.71,0-36.05,0-72.1,0-108.15,0-4.88,0-8.12-2.2-9.22-6.38-.77-2.91-.22-5.62,1.91-7.83,7.13-7.39,14.3-14.74,21.46-22.1,7.89-8.11,15.79-16.21,23.69-24.31,7.42-7.62,14.83-15.25,22.25-22.87,7.49-7.7,14.98-15.4,22.47-23.09,7.45-7.66,14.91-15.32,22.36-22.98,7.56-7.77,15.13-15.54,22.69-23.31,7.38-7.59,14.76-15.17,22.14-22.76,7.49-7.7,14.98-15.39,22.47-23.09,6.72-6.91,13.45-13.83,20.16-20.75,2.96-3.05,6.19-3.93,9.76-2.45,3.63,1.51,5.27,4.38,5.33,8.24,0,.26.03.52.04.78-2.51,7.13-4.98,14.27-7.53,21.39-3.41,9.5-6.86,18.99-10.33,28.47-7.4,20.25-14.82,40.48-22.22,60.73-3.06,8.39-6.64,16.59-9.51,25.06-.8,2.35-2,4.57-2.34,7.07Z"/>
  <path class="cls-1" d="M171.63,213.77c.34-2.5,1.54-4.72,2.34-7.07,2.87-8.47,6.45-16.66,9.51-25.06,7.39-20.25,14.82-40.48,22.22-60.73,3.46-9.48,6.92-18.97,10.33-28.47,2.55-7.11,5.02-14.26,7.53-21.39,8.27,10.86,16.55,21.71,24.81,32.58,15.33,20.16,30.64,40.33,45.97,60.49-3.54,3.68-7.05,7.38-10.62,11.02-9.57,9.75-19.17,19.46-28.75,29.19-11.48,11.67-22.95,23.35-34.41,35.03-9.6,9.78-19.2,19.58-28.81,29.36-.93.94-1.66,2-2.16,3.22-.14.34-.1.9-.73.82-2.88-10-5.76-19.99-8.65-29.99-2.66-9.2-5.33-18.39-8.01-27.58-.14-.49-.37-.95-.56-1.43Z"/>
</svg>